<?xml version="1.0" standalone="no"?>
 <!DOCTYPE svg PUBLIC "-//W3C//DTD SVG 1.1//EN" 
 "http://www.w3.org/Graphics/SVG/1.1/DTD/svg11.dtd"> 
<svg xmlns="http://www.w3.org/2000/svg" version="1.1" 
    width="15.0089cm" height="20.16cm" viewBox="0 0 59089 79369 ">
<title>SVG Picture created as prakash.sch.svg date 2022/03/07 20:58:31 </title>
  <desc>Picture generated by Eeschema-SVG </desc>
<g style="fill:#000000; fill-opacity:1;stroke:#000000; stroke-opacity:1;
stroke-linecap:round; stroke-linejoin:round; "
 transform="translate(0 0) scale(1 1)">
</g>
<g style="fill:#000000; fill-opacity:0.0; 
stroke:#000000; stroke-width:-10; stroke-opacity:1; 
stroke-linecap:round; stroke-linejoin:round;">
</g>
<g style="fill:#840000; fill-opacity:0.0; 
stroke:#840000; stroke-width:-10; stroke-opacity:1; 
stroke-linecap:round; stroke-linejoin:round;">
</g>
<g style="fill:#840000; fill-opacity:0.0; 
stroke:#840000; stroke-width:100; stroke-opacity:1; 
stroke-linecap:round; stroke-linejoin:round;">
</g>
<g style="fill:#840000; fill-opacity:0.0; 
stroke:#840000; stroke-width:60; stroke-opacity:1; 
stroke-linecap:round; stroke-linejoin:round;">
<rect x="11850" y="62050" width="42520" height="12600" rx="0" />
</g>
<g style="fill:#840000; fill-opacity:0.0; 
stroke:#840000; stroke-width:100; stroke-opacity:1; 
stroke-linecap:round; stroke-linejoin:round;">
</g>
<g style="fill:#840000; fill-opacity:0.0; 
stroke:#840000; stroke-width:60; stroke-opacity:1; 
stroke-linecap:round; stroke-linejoin:round;">
<rect x="3940" y="3940" width="51210" height="71490" rx="0" />
</g>
<g style="fill:#840000; fill-opacity:0.0; 
stroke:#840000; stroke-width:100; stroke-opacity:1; 
stroke-linecap:round; stroke-linejoin:round;">
</g>
<g style="fill:#840000; fill-opacity:0.0; 
stroke:#840000; stroke-width:60; stroke-opacity:1; 
stroke-linecap:round; stroke-linejoin:round;">
<rect x="4720" y="4720" width="49650" height="69930" rx="0" />
</g>
<g style="fill:#840000; fill-opacity:0.0; 
stroke:#840000; stroke-width:100; stroke-opacity:1; 
stroke-linecap:round; stroke-linejoin:round;">
</g>
<g style="fill:#840000; fill-opacity:0.0; 
stroke:#840000; stroke-width:60; stroke-opacity:1; 
stroke-linecap:round; stroke-linejoin:round;">
<path d="M23620 4720
L23620 3940
" />
</g>
<g style="fill:#840000; fill-opacity:0.0; 
stroke:#840000; stroke-width:100; stroke-opacity:1; 
stroke-linecap:round; stroke-linejoin:round;">
</g>
<g style="fill:#840000; fill-opacity:0.0; 
stroke:#840000; stroke-width:60; stroke-opacity:1; 
stroke-linecap:round; stroke-linejoin:round;">
<path d="M43310 4720
L43310 3940
" />
</g>
<g style="fill:#840000; fill-opacity:0.0; 
stroke:#840000; stroke-width:100; stroke-opacity:1; 
stroke-linecap:round; stroke-linejoin:round;">
</g>
<g style="fill:#840000; fill-opacity:0.0; 
stroke:#840000; stroke-width:60; stroke-opacity:1; 
stroke-linecap:round; stroke-linejoin:round;">
<path d="M14170 4560
L13880 4560
" />
<path d="M14020 4560
L14020 4050
L13970 4120
L13930 4170
L13880 4190
" />
</g>
<g style="fill:#840000; fill-opacity:0.0; 
stroke:#840000; stroke-width:100; stroke-opacity:1; 
stroke-linecap:round; stroke-linejoin:round;">
</g>
<g style="fill:#840000; fill-opacity:0.0; 
stroke:#840000; stroke-width:60; stroke-opacity:1; 
stroke-linecap:round; stroke-linejoin:round;">
<path d="M33560 4090
L33580 4070
L33630 4050
L33750 4050
L33800 4070
L33820 4090
L33850 4140
L33850 4190
L33820 4260
L33530 4560
L33850 4560
" />
</g>
<g style="fill:#840000; fill-opacity:0.0; 
stroke:#840000; stroke-width:100; stroke-opacity:1; 
stroke-linecap:round; stroke-linejoin:round;">
</g>
<g style="fill:#840000; fill-opacity:0.0; 
stroke:#840000; stroke-width:60; stroke-opacity:1; 
stroke-linecap:round; stroke-linejoin:round;">
<path d="M53220 4050
L53540 4050
L53370 4240
L53440 4240
L53490 4260
L53510 4290
L53540 4340
L53540 4460
L53510 4510
L53490 4530
L53440 4560
L53300 4560
L53250 4530
L53220 4510
" />
</g>
<g style="fill:#840000; fill-opacity:0.0; 
stroke:#840000; stroke-width:100; stroke-opacity:1; 
stroke-linecap:round; stroke-linejoin:round;">
</g>
<g style="fill:#840000; fill-opacity:0.0; 
stroke:#840000; stroke-width:60; stroke-opacity:1; 
stroke-linecap:round; stroke-linejoin:round;">
<path d="M23620 74650
L23620 75430
" />
</g>
<g style="fill:#840000; fill-opacity:0.0; 
stroke:#840000; stroke-width:100; stroke-opacity:1; 
stroke-linecap:round; stroke-linejoin:round;">
</g>
<g style="fill:#840000; fill-opacity:0.0; 
stroke:#840000; stroke-width:60; stroke-opacity:1; 
stroke-linecap:round; stroke-linejoin:round;">
<path d="M43310 74650
L43310 75430
" />
</g>
<g style="fill:#840000; fill-opacity:0.0; 
stroke:#840000; stroke-width:100; stroke-opacity:1; 
stroke-linecap:round; stroke-linejoin:round;">
</g>
<g style="fill:#840000; fill-opacity:0.0; 
stroke:#840000; stroke-width:60; stroke-opacity:1; 
stroke-linecap:round; stroke-linejoin:round;">
<path d="M14170 75270
L13880 75270
" />
<path d="M14020 75270
L14020 74760
L13970 74830
L13930 74880
L13880 74900
" />
</g>
<g style="fill:#840000; fill-opacity:0.0; 
stroke:#840000; stroke-width:100; stroke-opacity:1; 
stroke-linecap:round; stroke-linejoin:round;">
</g>
<g style="fill:#840000; fill-opacity:0.0; 
stroke:#840000; stroke-width:60; stroke-opacity:1; 
stroke-linecap:round; stroke-linejoin:round;">
<path d="M33560 74800
L33580 74780
L33630 74760
L33750 74760
L33800 74780
L33820 74800
L33850 74850
L33850 74900
L33820 74970
L33530 75270
L33850 75270
" />
</g>
<g style="fill:#840000; fill-opacity:0.0; 
stroke:#840000; stroke-width:100; stroke-opacity:1; 
stroke-linecap:round; stroke-linejoin:round;">
</g>
<g style="fill:#840000; fill-opacity:0.0; 
stroke:#840000; stroke-width:60; stroke-opacity:1; 
stroke-linecap:round; stroke-linejoin:round;">
<path d="M53220 74760
L53540 74760
L53370 74950
L53440 74950
L53490 74970
L53510 75000
L53540 75050
L53540 75170
L53510 75220
L53490 75240
L53440 75270
L53300 75270
L53250 75240
L53220 75220
" />
</g>
<g style="fill:#840000; fill-opacity:0.0; 
stroke:#840000; stroke-width:100; stroke-opacity:1; 
stroke-linecap:round; stroke-linejoin:round;">
</g>
<g style="fill:#840000; fill-opacity:0.0; 
stroke:#840000; stroke-width:60; stroke-opacity:1; 
stroke-linecap:round; stroke-linejoin:round;">
<path d="M3940 23620
L4720 23620
" />
</g>
<g style="fill:#840000; fill-opacity:0.0; 
stroke:#840000; stroke-width:100; stroke-opacity:1; 
stroke-linecap:round; stroke-linejoin:round;">
</g>
<g style="fill:#840000; fill-opacity:0.0; 
stroke:#840000; stroke-width:60; stroke-opacity:1; 
stroke-linecap:round; stroke-linejoin:round;">
<path d="M3940 43310
L4720 43310
" />
</g>
<g style="fill:#840000; fill-opacity:0.0; 
stroke:#840000; stroke-width:100; stroke-opacity:1; 
stroke-linecap:round; stroke-linejoin:round;">
</g>
<g style="fill:#840000; fill-opacity:0.0; 
stroke:#840000; stroke-width:60; stroke-opacity:1; 
stroke-linecap:round; stroke-linejoin:round;">
<path d="M3940 62990
L4720 62990
" />
</g>
<g style="fill:#840000; fill-opacity:0.0; 
stroke:#840000; stroke-width:100; stroke-opacity:1; 
stroke-linecap:round; stroke-linejoin:round;">
</g>
<g style="fill:#840000; fill-opacity:0.0; 
stroke:#840000; stroke-width:60; stroke-opacity:1; 
stroke-linecap:round; stroke-linejoin:round;">
<path d="M4210 13860
L4450 13860
" />
<path d="M4160 14010
L4330 13500
L4500 14010
" />
</g>
<g style="fill:#840000; fill-opacity:0.0; 
stroke:#840000; stroke-width:100; stroke-opacity:1; 
stroke-linecap:round; stroke-linejoin:round;">
</g>
<g style="fill:#840000; fill-opacity:0.0; 
stroke:#840000; stroke-width:60; stroke-opacity:1; 
stroke-linecap:round; stroke-linejoin:round;">
<path d="M4370 33420
L4440 33440
L4470 33470
L4490 33520
L4490 33590
L4470 33640
L4440 33660
L4400 33690
L4200 33690
L4200 33180
L4370 33180
L4420 33200
L4440 33220
L4470 33270
L4470 33320
L4440 33370
L4420 33390
L4370 33420
L4200 33420
" />
</g>
<g style="fill:#840000; fill-opacity:0.0; 
stroke:#840000; stroke-width:100; stroke-opacity:1; 
stroke-linecap:round; stroke-linejoin:round;">
</g>
<g style="fill:#840000; fill-opacity:0.0; 
stroke:#840000; stroke-width:60; stroke-opacity:1; 
stroke-linecap:round; stroke-linejoin:round;">
<path d="M4490 53330
L4470 53350
L4400 53380
L4350 53380
L4270 53350
L4230 53300
L4200 53250
L4180 53160
L4180 53080
L4200 52990
L4230 52940
L4270 52890
L4350 52870
L4400 52870
L4470 52890
L4490 52910
" />
</g>
<g style="fill:#840000; fill-opacity:0.0; 
stroke:#840000; stroke-width:100; stroke-opacity:1; 
stroke-linecap:round; stroke-linejoin:round;">
</g>
<g style="fill:#840000; fill-opacity:0.0; 
stroke:#840000; stroke-width:60; stroke-opacity:1; 
stroke-linecap:round; stroke-linejoin:round;">
<path d="M4200 73060
L4200 72550
L4320 72550
L4400 72570
L4440 72620
L4470 72670
L4490 72760
L4490 72840
L4470 72930
L4440 72980
L4400 73030
L4320 73060
L4200 73060
" />
</g>
<g style="fill:#840000; fill-opacity:0.0; 
stroke:#840000; stroke-width:100; stroke-opacity:1; 
stroke-linecap:round; stroke-linejoin:round;">
</g>
<g style="fill:#840000; fill-opacity:0.0; 
stroke:#840000; stroke-width:60; stroke-opacity:1; 
stroke-linecap:round; stroke-linejoin:round;">
<path d="M55150 23620
L54370 23620
" />
</g>
<g style="fill:#840000; fill-opacity:0.0; 
stroke:#840000; stroke-width:100; stroke-opacity:1; 
stroke-linecap:round; stroke-linejoin:round;">
</g>
<g style="fill:#840000; fill-opacity:0.0; 
stroke:#840000; stroke-width:60; stroke-opacity:1; 
stroke-linecap:round; stroke-linejoin:round;">
<path d="M55150 43310
L54370 43310
" />
</g>
<g style="fill:#840000; fill-opacity:0.0; 
stroke:#840000; stroke-width:100; stroke-opacity:1; 
stroke-linecap:round; stroke-linejoin:round;">
</g>
<g style="fill:#840000; fill-opacity:0.0; 
stroke:#840000; stroke-width:60; stroke-opacity:1; 
stroke-linecap:round; stroke-linejoin:round;">
<path d="M55150 62990
L54370 62990
" />
</g>
<g style="fill:#840000; fill-opacity:0.0; 
stroke:#840000; stroke-width:100; stroke-opacity:1; 
stroke-linecap:round; stroke-linejoin:round;">
</g>
<g style="fill:#840000; fill-opacity:0.0; 
stroke:#840000; stroke-width:60; stroke-opacity:1; 
stroke-linecap:round; stroke-linejoin:round;">
<path d="M54640 13860
L54880 13860
" />
<path d="M54590 14010
L54760 13500
L54930 14010
" />
</g>
<g style="fill:#840000; fill-opacity:0.0; 
stroke:#840000; stroke-width:100; stroke-opacity:1; 
stroke-linecap:round; stroke-linejoin:round;">
</g>
<g style="fill:#840000; fill-opacity:0.0; 
stroke:#840000; stroke-width:60; stroke-opacity:1; 
stroke-linecap:round; stroke-linejoin:round;">
<path d="M54800 33420
L54870 33440
L54900 33470
L54920 33520
L54920 33590
L54900 33640
L54870 33660
L54830 33690
L54630 33690
L54630 33180
L54800 33180
L54850 33200
L54870 33220
L54900 33270
L54900 33320
L54870 33370
L54850 33390
L54800 33420
L54630 33420
" />
</g>
<g style="fill:#840000; fill-opacity:0.0; 
stroke:#840000; stroke-width:100; stroke-opacity:1; 
stroke-linecap:round; stroke-linejoin:round;">
</g>
<g style="fill:#840000; fill-opacity:0.0; 
stroke:#840000; stroke-width:60; stroke-opacity:1; 
stroke-linecap:round; stroke-linejoin:round;">
<path d="M54920 53330
L54900 53350
L54830 53380
L54780 53380
L54700 53350
L54660 53300
L54630 53250
L54610 53160
L54610 53080
L54630 52990
L54660 52940
L54700 52890
L54780 52870
L54830 52870
L54900 52890
L54920 52910
" />
</g>
<g style="fill:#840000; fill-opacity:0.0; 
stroke:#840000; stroke-width:100; stroke-opacity:1; 
stroke-linecap:round; stroke-linejoin:round;">
</g>
<g style="fill:#840000; fill-opacity:0.0; 
stroke:#840000; stroke-width:60; stroke-opacity:1; 
stroke-linecap:round; stroke-linejoin:round;">
<path d="M54630 73060
L54630 72550
L54750 72550
L54830 72570
L54870 72620
L54900 72670
L54920 72760
L54920 72840
L54900 72930
L54870 72980
L54830 73030
L54750 73060
L54630 73060
" />
</g>
<g style="fill:#840000; fill-opacity:0.0; 
stroke:#840000; stroke-width:100; stroke-opacity:1; 
stroke-linecap:round; stroke-linejoin:round;">
</g>
<g style="fill:#840000; fill-opacity:0.0; 
stroke:#840000; stroke-width:60; stroke-opacity:1; 
stroke-linecap:round; stroke-linejoin:round;">
<path d="M21040 72980
L21040 72390
L21180 72390
L21270 72420
L21320 72480
L21350 72530
L21380 72640
L21380 72730
L21350 72840
L21320 72900
L21270 72950
L21180 72980
L21040 72980
" />
<path d="M21880 72980
L21880 72670
L21860 72620
L21800 72590
L21690 72590
L21630 72620
" />
<path d="M21880 72950
L21830 72980
L21690 72980
L21630 72950
L21600 72900
L21600 72840
L21630 72790
L21690 72760
L21830 72760
L21880 72730
" />
<path d="M22080 72590
L22300 72590
" />
<path d="M22160 72390
L22160 72900
L22190 72950
L22240 72980
L22300 72980
" />
<path d="M22730 72950
L22670 72980
L22560 72980
L22500 72950
L22470 72900
L22470 72670
L22500 72620
L22560 72590
L22670 72590
L22730 72620
L22750 72670
L22750 72730
L22470 72790
" />
<path d="M23010 72930
L23040 72950
L23010 72980
L22980 72950
L23010 72930
L23010 72980
" />
<path d="M23010 72620
L23040 72640
L23010 72670
L22980 72640
L23010 72620
L23010 72670
" />
</g>
<g style="fill:#840000; fill-opacity:0.0; 
stroke:#840000; stroke-width:100; stroke-opacity:1; 
stroke-linecap:round; stroke-linejoin:round;">
</g>
<g style="fill:#840000; fill-opacity:0.0; 
stroke:#840000; stroke-width:60; stroke-opacity:1; 
stroke-linecap:round; stroke-linejoin:round;">
<path d="M11850 73270
L54370 73270
" />
</g>
<g style="fill:#840000; fill-opacity:0.0; 
stroke:#840000; stroke-width:100; stroke-opacity:1; 
stroke-linecap:round; stroke-linejoin:round;">
</g>
<g style="fill:#840000; fill-opacity:0.0; 
stroke:#840000; stroke-width:60; stroke-opacity:1; 
stroke-linecap:round; stroke-linejoin:round;">
<path d="M12380 74080
L12380 73490
" />
<path d="M12720 74080
L12460 73740
" />
<path d="M12720 73490
L12380 73830
" />
<path d="M12970 74080
L12970 73690
" />
<path d="M12970 73490
L12940 73520
L12970 73550
L13000 73520
L12970 73490
L12970 73550
" />
<path d="M13590 74030
L13560 74050
L13480 74080
L13420 74080
L13330 74050
L13280 74000
L13250 73940
L13220 73830
L13220 73740
L13250 73630
L13280 73580
L13330 73520
L13420 73490
L13480 73490
L13560 73520
L13590 73550
" />
<path d="M14090 74080
L14090 73770
L14070 73720
L14010 73690
L13900 73690
L13840 73720
" />
<path d="M14090 74050
L14040 74080
L13900 74080
L13840 74050
L13810 74000
L13810 73940
L13840 73890
L13900 73860
L14040 73860
L14090 73830
" />
<path d="M14620 74080
L14620 73490
" />
<path d="M14620 74050
L14570 74080
L14450 74080
L14400 74050
L14370 74030
L14340 73970
L14340 73800
L14370 73740
L14400 73720
L14450 73690
L14570 73690
L14620 73720
" />
<path d="M15350 73770
L15550 73770
" />
<path d="M15630 74080
L15350 74080
L15350 73490
L15630 73490
" />
<path d="M15880 74030
L15910 74050
L15880 74080
L15850 74050
L15880 74030
L15880 74080
" />
<path d="M16160 74080
L16160 73490
L16300 73490
L16390 73520
L16440 73580
L16470 73630
L16500 73740
L16500 73830
L16470 73940
L16440 74000
L16390 74050
L16300 74080
L16160 74080
" />
<path d="M16750 74030
L16780 74050
L16750 74080
L16720 74050
L16750 74030
L16750 74080
" />
<path d="M17000 73910
L17280 73910
" />
<path d="M16950 74080
L17140 73490
L17340 74080
" />
<path d="M17540 74030
L17570 74050
L17540 74080
L17510 74050
L17540 74030
L17540 74080
" />
<path d="M18950 74050
L18890 74080
L18780 74080
L18720 74050
L18690 74000
L18690 73770
L18720 73720
L18780 73690
L18890 73690
L18950 73720
L18970 73770
L18970 73830
L18690 73890
" />
<path d="M19460 74050
L19400 74080
L19290 74080
L19230 74050
L19200 74000
L19200 73770
L19230 73720
L19290 73690
L19400 73690
L19460 73720
L19480 73770
L19480 73830
L19200 73890
" />
<path d="M19710 74050
L19770 74080
L19880 74080
L19940 74050
L19970 74000
L19970 73970
L19940 73910
L19880 73890
L19800 73890
L19740 73860
L19710 73800
L19710 73770
L19740 73720
L19800 73690
L19880 73690
L19940 73720
" />
<path d="M20470 74050
L20420 74080
L20300 74080
L20250 74050
L20220 74030
L20190 73970
L20190 73800
L20220 73740
L20250 73720
L20300 73690
L20420 73690
L20470 73720
" />
<path d="M20730 74080
L20730 73490
" />
<path d="M20980 74080
L20980 73770
L20960 73720
L20900 73690
L20810 73690
L20760 73720
L20730 73740
" />
<path d="M21490 74050
L21430 74080
L21320 74080
L21260 74050
L21230 74000
L21230 73770
L21260 73720
L21320 73690
L21430 73690
L21490 73720
L21510 73770
L21510 73830
L21230 73890
" />
<path d="M21770 74080
L21770 73690
" />
<path d="M21770 73740
L21800 73720
L21850 73690
L21940 73690
L22000 73720
L22020 73770
L22020 74080
" />
<path d="M22020 73770
L22050 73720
L22110 73690
L22190 73690
L22250 73720
L22280 73770
L22280 74080
" />
<path d="M22810 74080
L22810 73770
L22790 73720
L22730 73690
L22620 73690
L22560 73720
" />
<path d="M22810 74050
L22760 74080
L22620 74080
L22560 74050
L22530 74000
L22530 73940
L22560 73890
L22620 73860
L22760 73860
L22810 73830
" />
<path d="M23790 73690
L23790 74080
" />
<path d="M23650 73460
L23510 73890
L23880 73890
" />
<path d="M24100 74030
L24130 74050
L24100 74080
L24070 74050
L24100 74030
L24100 74080
" />
<path d="M24490 73490
L24550 73490
L24610 73520
L24630 73550
L24660 73600
L24690 73720
L24690 73860
L24660 73970
L24630 74030
L24610 74050
L24550 74080
L24490 74080
L24440 74050
L24410 74030
L24380 73970
L24350 73860
L24350 73720
L24380 73600
L24410 73550
L24440 73520
L24490 73490
" />
<path d="M24940 74030
L24970 74050
L24940 74080
L24910 74050
L24940 74030
L24940 74080
" />
<path d="M25160 73490
L25560 73490
L25300 74080
" />
</g>
<g style="fill:#840000; fill-opacity:0.0; 
stroke:#840000; stroke-width:100; stroke-opacity:1; 
stroke-linecap:round; stroke-linejoin:round;">
</g>
<g style="fill:#840000; fill-opacity:0.0; 
stroke:#840000; stroke-width:60; stroke-opacity:1; 
stroke-linecap:round; stroke-linejoin:round;">
<path d="M11850 72090
L54370 72090
" />
</g>
<g style="fill:#840000; fill-opacity:0.0; 
stroke:#840000; stroke-width:100; stroke-opacity:1; 
stroke-linecap:round; stroke-linejoin:round;">
</g>
<g style="fill:#840000; fill-opacity:0.0; 
stroke:#840000; stroke-width:120; stroke-opacity:1; 
stroke-linecap:round; stroke-linejoin:round;">
<path d="M46180 72980
L45980 72700
" />
<path d="M45840 72980
L45840 72390
L46070 72390
L46120 72420
L46150 72450
L46180 72500
L46180 72590
L46150 72640
L46120 72670
L46070 72700
L45840 72700
" />
<path d="M46660 72950
L46600 72980
L46490 72980
L46430 72950
L46400 72900
L46400 72670
L46430 72620
L46490 72590
L46600 72590
L46660 72620
L46680 72670
L46680 72730
L46400 72790
" />
<path d="M46880 72590
L47020 72980
L47170 72590
" />
<path d="M47390 72930
L47420 72950
L47390 72980
L47360 72950
L47390 72930
L47390 72980
" />
<path d="M47390 72620
L47420 72640
L47390 72670
L47360 72640
L47390 72620
L47390 72670
" />
</g>
<g style="fill:#840000; fill-opacity:0.0; 
stroke:#840000; stroke-width:100; stroke-opacity:1; 
stroke-linecap:round; stroke-linejoin:round;">
</g>
<g style="fill:#840000; fill-opacity:0.0; 
stroke:#840000; stroke-width:60; stroke-opacity:1; 
stroke-linecap:round; stroke-linejoin:round;">
<path d="M12350 72950
L12440 72980
L12580 72980
L12630 72950
L12660 72930
L12690 72870
L12690 72810
L12660 72760
L12630 72730
L12580 72700
L12460 72670
L12410 72640
L12380 72620
L12350 72560
L12350 72500
L12380 72450
L12410 72420
L12460 72390
L12610 72390
L12690 72420
" />
<path d="M12940 72980
L12940 72590
" />
<path d="M12940 72390
L12910 72420
L12940 72450
L12970 72420
L12940 72390
L12940 72450
" />
<path d="M13160 72590
L13470 72590
L13160 72980
L13470 72980
" />
<path d="M13930 72950
L13870 72980
L13760 72980
L13700 72950
L13670 72900
L13670 72670
L13700 72620
L13760 72590
L13870 72590
L13930 72620
L13950 72670
L13950 72730
L13670 72790
" />
<path d="M14210 72930
L14240 72950
L14210 72980
L14180 72950
L14210 72930
L14210 72980
" />
<path d="M14210 72620
L14240 72640
L14210 72670
L14180 72640
L14210 72620
L14210 72670
" />
<path d="M14940 72390
L14940 72870
L14970 72930
L15000 72950
L15050 72980
L15170 72980
L15220 72950
L15250 72930
L15280 72870
L15280 72390
" />
<path d="M15530 72950
L15590 72980
L15700 72980
L15760 72950
L15790 72900
L15790 72870
L15760 72810
L15700 72790
L15620 72790
L15560 72760
L15530 72700
L15530 72670
L15560 72620
L15620 72590
L15700 72590
L15760 72620
" />
<path d="M16270 72950
L16210 72980
L16100 72980
L16040 72950
L16010 72900
L16010 72670
L16040 72620
L16100 72590
L16210 72590
L16270 72620
L16290 72670
L16290 72730
L16010 72790
" />
<path d="M16550 72980
L16550 72590
" />
<path d="M16550 72700
L16580 72640
L16610 72620
L16660 72590
L16720 72590
" />
</g>
<g style="fill:#840000; fill-opacity:0.0; 
stroke:#840000; stroke-width:100; stroke-opacity:1; 
stroke-linecap:round; stroke-linejoin:round;">
</g>
<g style="fill:#840000; fill-opacity:0.0; 
stroke:#840000; stroke-width:60; stroke-opacity:1; 
stroke-linecap:round; stroke-linejoin:round;">
<path d="M45840 74080
L45840 73490
" />
<path d="M46370 74080
L46370 73490
" />
<path d="M46370 74050
L46320 74080
L46200 74080
L46150 74050
L46120 74030
L46090 73970
L46090 73800
L46120 73740
L46150 73720
L46200 73690
L46320 73690
L46370 73720
" />
<path d="M46650 74030
L46680 74050
L46650 74080
L46620 74050
L46650 74030
L46650 74080
" />
<path d="M46650 73720
L46680 73740
L46650 73770
L46620 73740
L46650 73720
L46650 73770
" />
<path d="M47690 74080
L47350 74080
" />
<path d="M47520 74080
L47520 73490
L47460 73580
L47410 73630
L47350 73660
" />
<path d="M48360 73460
L47860 74220
" />
<path d="M48870 74080
L48530 74080
" />
<path d="M48700 74080
L48700 73490
L48640 73580
L48590 73630
L48530 73660
" />
</g>
<g style="fill:#840000; fill-opacity:0.0; 
stroke:#840000; stroke-width:100; stroke-opacity:1; 
stroke-linecap:round; stroke-linejoin:round;">
</g>
<g style="fill:#840000; fill-opacity:0.0; 
stroke:#840000; stroke-width:60; stroke-opacity:1; 
stroke-linecap:round; stroke-linejoin:round;">
<path d="M11850 70510
L54370 70510
" />
</g>
<g style="fill:#840000; fill-opacity:0.0; 
stroke:#840000; stroke-width:100; stroke-opacity:1; 
stroke-linecap:round; stroke-linejoin:round;">
</g>
<g style="fill:#840000; fill-opacity:0.0; 
stroke:#840000; stroke-width:160; stroke-opacity:1; 
stroke-linecap:round; stroke-linejoin:round;">
<path d="M12420 70780
L12870 70780
" />
<path d="M12550 71570
L12640 70780
" />
<path d="M13040 71570
L13100 71050
" />
<path d="M13130 70780
L13090 70820
L13120 70860
L13170 70820
L13130 70780
L13120 70860
" />
<path d="M13370 71050
L13670 71050
" />
<path d="M13510 70780
L13430 71460
L13460 71530
L13530 71570
L13610 71570
" />
<path d="M13980 71570
L13910 71530
L13880 71460
L13960 70780
" />
<path d="M14580 71530
L14500 71570
L14350 71570
L14280 71530
L14250 71460
L14290 71160
L14340 71080
L14410 71050
L14560 71050
L14640 71080
L14670 71160
L14660 71230
L14270 71310
" />
<path d="M14960 71500
L15000 71530
L14960 71570
L14920 71530
L14960 71500
L14960 71570
" />
<path d="M15020 71080
L15050 71120
L15010 71160
L14970 71120
L15020 71080
L15010 71160
" />
</g>
<g style="fill:#840000; fill-opacity:0.0; 
stroke:#840000; stroke-width:100; stroke-opacity:1; 
stroke-linecap:round; stroke-linejoin:round;">
</g>
<g style="fill:#840000; fill-opacity:0.0; 
stroke:#840000; stroke-width:60; stroke-opacity:1; 
stroke-linecap:round; stroke-linejoin:round;">
<path d="M12580 69750
L12380 69750
" />
<path d="M12380 70060
L12380 69470
L12660 69470
" />
<path d="M12890 70060
L12890 69670
" />
<path d="M12890 69470
L12860 69500
L12890 69530
L12920 69500
L12890 69470
L12890 69530
" />
<path d="M13250 70060
L13200 70030
L13170 69980
L13170 69470
" />
<path d="M13710 70030
L13650 70060
L13540 70060
L13480 70030
L13450 69980
L13450 69750
L13480 69700
L13540 69670
L13650 69670
L13710 69700
L13730 69750
L13730 69810
L13450 69870
" />
<path d="M13990 70010
L14020 70030
L13990 70060
L13960 70030
L13990 70010
L13990 70060
" />
<path d="M13990 69700
L14020 69720
L13990 69750
L13960 69720
L13990 69700
L13990 69750
" />
<path d="M14720 69670
L14720 70260
" />
<path d="M14720 69700
L14780 69670
L14890 69670
L14950 69700
L14970 69720
L15000 69780
L15000 69950
L14970 70010
L14950 70030
L14890 70060
L14780 70060
L14720 70030
" />
<path d="M15250 70060
L15250 69670
" />
<path d="M15250 69780
L15280 69720
L15310 69700
L15360 69670
L15420 69670
" />
<path d="M15870 70060
L15870 69750
L15850 69700
L15790 69670
L15680 69670
L15620 69700
" />
<path d="M15870 70030
L15820 70060
L15680 70060
L15620 70030
L15590 69980
L15590 69920
L15620 69870
L15680 69840
L15820 69840
L15870 69810
" />
<path d="M16150 70060
L16150 69470
" />
<path d="M16210 69840
L16380 70060
" />
<path d="M16380 69670
L16150 69890
" />
<path d="M16880 70060
L16880 69750
L16860 69700
L16800 69670
L16690 69670
L16630 69700
" />
<path d="M16880 70030
L16830 70060
L16690 70060
L16630 70030
L16600 69980
L16600 69920
L16630 69870
L16690 69840
L16830 69840
L16880 69810
" />
<path d="M17130 70030
L17190 70060
L17300 70060
L17360 70030
L17390 69980
L17390 69950
L17360 69890
L17300 69870
L17220 69870
L17160 69840
L17130 69780
L17130 69750
L17160 69700
L17220 69670
L17300 69670
L17360 69700
" />
<path d="M17640 70060
L17640 69470
" />
<path d="M17890 70060
L17890 69750
L17870 69700
L17810 69670
L17720 69670
L17670 69700
L17640 69720
" />
<path d="M18170 70010
L18200 70030
L18170 70060
L18140 70030
L18170 70010
L18170 70060
" />
<path d="M18420 70030
L18480 70060
L18590 70060
L18650 70030
L18680 69980
L18680 69950
L18650 69890
L18590 69870
L18510 69870
L18450 69840
L18420 69780
L18420 69750
L18450 69700
L18510 69670
L18590 69670
L18650 69700
" />
<path d="M19180 70030
L19130 70060
L19010 70060
L18960 70030
L18930 70010
L18900 69950
L18900 69780
L18930 69720
L18960 69700
L19010 69670
L19130 69670
L19180 69700
" />
<path d="M19440 70060
L19440 69470
" />
<path d="M19690 70060
L19690 69750
L19670 69700
L19610 69670
L19520 69670
L19470 69700
L19440 69720
" />
</g>
<g style="fill:#840000; fill-opacity:0.0; 
stroke:#840000; stroke-width:100; stroke-opacity:1; 
stroke-linecap:round; stroke-linejoin:round;">
</g>
<g style="fill:#840000; fill-opacity:0.0; 
stroke:#840000; stroke-width:60; stroke-opacity:1; 
stroke-linecap:round; stroke-linejoin:round;">
<path d="M11850 68150
L54370 68150
" />
</g>
<g style="fill:#840000; fill-opacity:0.0; 
stroke:#840000; stroke-width:100; stroke-opacity:1; 
stroke-linecap:round; stroke-linejoin:round;">
</g>
<g style="fill:#840000; fill-opacity:0.0; 
stroke:#840000; stroke-width:60; stroke-opacity:1; 
stroke-linecap:round; stroke-linejoin:round;">
<path d="M12350 68970
L12440 69000
L12580 69000
L12630 68970
L12660 68950
L12690 68890
L12690 68830
L12660 68780
L12630 68750
L12580 68720
L12460 68690
L12410 68660
L12380 68640
L12350 68580
L12350 68520
L12380 68470
L12410 68440
L12460 68410
L12610 68410
L12690 68440
" />
<path d="M12940 69000
L12940 68410
" />
<path d="M13190 69000
L13190 68690
L13170 68640
L13110 68610
L13020 68610
L12970 68640
L12940 68660
" />
<path d="M13700 68970
L13640 69000
L13530 69000
L13470 68970
L13440 68920
L13440 68690
L13470 68640
L13530 68610
L13640 68610
L13700 68640
L13720 68690
L13720 68750
L13440 68810
" />
<path d="M14210 68970
L14150 69000
L14040 69000
L13980 68970
L13950 68920
L13950 68690
L13980 68640
L14040 68610
L14150 68610
L14210 68640
L14230 68690
L14230 68750
L13950 68810
" />
<path d="M14410 68610
L14630 68610
" />
<path d="M14490 68410
L14490 68920
L14520 68970
L14570 69000
L14630 69000
" />
<path d="M14830 68950
L14860 68970
L14830 69000
L14800 68970
L14830 68950
L14830 69000
" />
<path d="M14830 68640
L14860 68660
L14830 68690
L14800 68660
L14830 68640
L14830 68690
" />
<path d="M15980 68380
L15480 69140
" />
</g>
<g style="fill:#840000; fill-opacity:0.0; 
stroke:#840000; stroke-width:100; stroke-opacity:1; 
stroke-linecap:round; stroke-linejoin:round;">
</g>
<g style="fill:#840000; fill-opacity:0.0; 
stroke:#840000; stroke-width:60; stroke-opacity:1; 
stroke-linecap:round; stroke-linejoin:round;">
<path d="M19720 72090
L19720 73270
" />
</g>
<g style="fill:#840000; fill-opacity:0.0; 
stroke:#840000; stroke-width:100; stroke-opacity:1; 
stroke-linecap:round; stroke-linejoin:round;">
</g>
<g style="fill:#840000; fill-opacity:0.0; 
stroke:#840000; stroke-width:60; stroke-opacity:1; 
stroke-linecap:round; stroke-linejoin:round;">
<path d="M44920 72090
L44920 74650
" />
</g>
<g style="fill:#840000; fill-opacity:0.0; 
stroke:#840000; stroke-width:0; stroke-opacity:1; 
stroke-linecap:round; stroke-linejoin:round;">
</g>
<g style="fill:#840000; fill-opacity:0.0; 
stroke:#840000; stroke-width:100; stroke-opacity:1; 
stroke-linecap:round; stroke-linejoin:round;">
<rect x="32000" y="30600" width="2000" height="800" rx="0" />
</g>
<g style="fill:#840000; fill-opacity:0.0; 
stroke:#840000; stroke-width:60; stroke-opacity:1; 
stroke-linecap:round; stroke-linejoin:round;">
<path d="M32000 31000
L31500 31000
" />
<path d="M34000 31000
L34500 31000
" />
</g>
<g style="fill:#008484; fill-opacity:0.0; 
stroke:#008484; stroke-width:60; stroke-opacity:1; 
stroke-linecap:round; stroke-linejoin:round;">
<path d="M32910 30460
L32750 30220
" />
<path d="M32630 30460
L32630 29960
L32820 29960
L32870 29980
L32890 30000
L32910 30050
L32910 30120
L32890 30170
L32870 30190
L32820 30220
L32630 30220
" />
<path d="M33080 29960
L33390 29960
L33220 30150
L33300 30150
L33340 30170
L33370 30190
L33390 30240
L33390 30360
L33370 30410
L33340 30430
L33300 30460
L33150 30460
L33110 30430
L33080 30410
" />
<path d="M31960 31230
L31910 31260
L31820 31260
L31770 31230
L31750 31180
L31750 30990
L31770 30950
L31820 30920
L31910 30920
L31960 30950
L31980 30990
L31980 31040
L31750 31090
" />
<path d="M32180 31230
L32250 31260
L32370 31260
L32410 31230
L32440 31210
L32460 31160
L32460 31110
L32440 31070
L32410 31040
L32370 31020
L32270 30990
L32220 30970
L32200 30950
L32180 30900
L32180 30850
L32200 30800
L32220 30780
L32270 30760
L32390 30760
L32460 30780
" />
<path d="M32680 31260
L32680 30920
" />
<path d="M32680 30760
L32660 30780
L32680 30800
L32700 30780
L32680 30760
L32680 30800
" />
<path d="M32920 31260
L32920 30920
" />
<path d="M32920 30970
L32940 30950
L32990 30920
L33060 30920
L33110 30950
L33130 30990
L33130 31260
" />
<path d="M33130 30990
L33160 30950
L33200 30920
L33280 30920
L33320 30950
L33350 30990
L33350 31260
" />
<path d="M33470 31300
L33850 31300
" />
<path d="M34250 31260
L34090 31020
" />
<path d="M33970 31260
L33970 30760
L34160 30760
L34210 30780
L34230 30800
L34250 30850
L34250 30920
L34230 30970
L34210 30990
L34160 31020
L33970 31020
" />
</g>
<g style="fill:#008484; fill-opacity:0.0; 
stroke:#008484; stroke-width:0; stroke-opacity:1; 
stroke-linecap:round; stroke-linejoin:round;">
</g>
<g style="fill:#840000; fill-opacity:0.0; 
stroke:#840000; stroke-width:0; stroke-opacity:1; 
stroke-linecap:round; stroke-linejoin:round;">
</g>
<g style="fill:#840000; fill-opacity:0.0; 
stroke:#840000; stroke-width:60; stroke-opacity:1; 
stroke-linecap:round; stroke-linejoin:round;">
<path d="M29503.5 34996.4 A5010 5010 0.0 0 0 29005.3 34996 " />
<path d="M29506.1 36003.4 A4510 4510 0.0 0 0 30001.8 36003 " />
<path d="M30000 35004.3 A5510 5510 0.0 0 0 30509.6 35003.9 " />
<path d="M29001.8 34994.9 A4030 4030 0.0 0 0 29001.8 36005.1 " />
<path d="M29498.2 34995 A4530 4530 0.0 0 0 29498.2 36005 " />
<path d="M30002.7 34999.7 A5520 5520 0.0 0 0 30002.7 36000.3 " />
<circle cx="29500" cy="35500" r="1500" /> 
<path d="M29500 34000
L29500 31000
" />
</g>
<g style="fill:#008484; fill-opacity:0.0; 
stroke:#008484; stroke-width:60; stroke-opacity:1; 
stroke-linecap:round; stroke-linejoin:round;">
<path d="M29540 34900
L29540 34520
" />
<path d="M29730 34710
L29350 34710
" />
</g>
<g style="fill:#840000; fill-opacity:0.0; 
stroke:#840000; stroke-width:60; stroke-opacity:1; 
stroke-linecap:round; stroke-linejoin:round;">
<path d="M29380 32360
L29380 32640
" />
<path d="M29380 32500
L28880 32500
L28950 32550
L29000 32600
L29020 32640
" />
<path d="M29500 37000
L29500 40000
" />
</g>
<g style="fill:#008484; fill-opacity:0.0; 
stroke:#008484; stroke-width:60; stroke-opacity:1; 
stroke-linecap:round; stroke-linejoin:round;">
<path d="M29540 36480
L29540 36100
" />
</g>
<g style="fill:#840000; fill-opacity:0.0; 
stroke:#840000; stroke-width:60; stroke-opacity:1; 
stroke-linecap:round; stroke-linejoin:round;">
<path d="M28920 38640
L28900 38620
L28880 38570
L28880 38450
L28900 38410
L28920 38380
L28970 38360
L29020 38360
L29090 38380
L29380 38670
L29380 38360
" />
</g>
<g style="fill:#008484; fill-opacity:0.0; 
stroke:#008484; stroke-width:60; stroke-opacity:1; 
stroke-linecap:round; stroke-linejoin:round;">
<path d="M27080 34410
L27220 34810
L27360 34410
" />
<path d="M27540 34210
L27910 34210
L27710 34440
L27790 34440
L27850 34470
L27880 34500
L27910 34550
L27910 34700
L27880 34750
L27850 34780
L27790 34810
L27620 34810
L27560 34780
L27540 34750
" />
<path d="M26450 35910
L26450 36510
" />
<path d="M26450 35940
L26510 35910
L26620 35910
L26680 35940
L26710 35970
L26740 36030
L26740 36200
L26710 36250
L26680 36280
L26620 36310
L26510 36310
L26450 36280
" />
<path d="M27250 35910
L27250 36310
" />
<path d="M26990 35910
L26990 36230
L27020 36280
L27080 36310
L27160 36310
L27220 36280
L27250 36250
" />
<path d="M27620 36310
L27560 36280
L27530 36230
L27530 35710
" />
<path d="M27810 36280
L27870 36310
L27990 36310
L28040 36280
L28070 36230
L28070 36200
L28040 36140
L27990 36110
L27900 36110
L27840 36080
L27810 36030
L27810 36000
L27840 35940
L27900 35910
L27990 35910
L28040 35940
" />
<path d="M28560 36280
L28500 36310
L28390 36310
L28330 36280
L28300 36230
L28300 36000
L28330 35940
L28390 35910
L28500 35910
L28560 35940
L28590 36000
L28590 36050
L28300 36110
" />
</g>
<g style="fill:#840084; fill-opacity:0.0; 
stroke:#840084; stroke-width:60; stroke-opacity:1; 
stroke-linecap:round; stroke-linejoin:round;">
<path d="M26410 35810
L26210 35530
" />
<path d="M26060 35810
L26060 35210
L26290 35210
L26350 35240
L26380 35270
L26410 35330
L26410 35410
L26380 35470
L26350 35500
L26290 35530
L26060 35530
" />
<path d="M26980 35810
L26630 35810
" />
<path d="M26810 35810
L26810 35210
L26750 35300
L26690 35350
L26630 35380
" />
</g>
<g style="fill:#840084; fill-opacity:0.0; 
stroke:#840084; stroke-width:0; stroke-opacity:1; 
stroke-linecap:round; stroke-linejoin:round;">
</g>
<g style="fill:#840000; fill-opacity:0.0; 
stroke:#840000; stroke-width:0; stroke-opacity:1; 
stroke-linecap:round; stroke-linejoin:round;">
</g>
<g style="fill:#840000; fill-opacity:0.0; 
stroke:#840000; stroke-width:60; stroke-opacity:1; 
stroke-linecap:round; stroke-linejoin:round;">
<polyline fill="none;"
points="41500,43500
41500,44000
42000,44000
41500,44500
41000,44000
41500,44000
" /> 
</g>
<g style="fill:#008484; fill-opacity:0.0; 
stroke:#008484; stroke-width:60; stroke-opacity:1; 
stroke-linecap:round; stroke-linejoin:round;">
<path d="M39950 45230
L39900 45260
L39810 45260
L39760 45230
L39740 45180
L39740 44990
L39760 44950
L39810 44920
L39900 44920
L39950 44950
L39970 44990
L39970 45040
L39740 45090
" />
<path d="M40170 45230
L40240 45260
L40360 45260
L40400 45230
L40430 45210
L40450 45160
L40450 45110
L40430 45070
L40400 45040
L40360 45020
L40260 44990
L40210 44970
L40190 44950
L40170 44900
L40170 44850
L40190 44800
L40210 44780
L40260 44760
L40380 44760
L40450 44780
" />
<path d="M40670 45260
L40670 44920
" />
<path d="M40670 44760
L40650 44780
L40670 44800
L40690 44780
L40670 44760
L40670 44800
" />
<path d="M40910 45260
L40910 44920
" />
<path d="M40910 44970
L40930 44950
L40980 44920
L41050 44920
L41100 44950
L41120 44990
L41120 45260
" />
<path d="M41120 44990
L41150 44950
L41190 44920
L41270 44920
L41310 44950
L41340 44990
L41340 45260
" />
<path d="M41460 45300
L41840 45300
" />
<path d="M42220 44780
L42170 44760
L42100 44760
L42030 44780
L41980 44830
L41960 44880
L41940 44970
L41940 45040
L41960 45140
L41980 45180
L42030 45230
L42100 45260
L42150 45260
L42220 45230
L42240 45210
L42240 45040
L42150 45040
" />
<path d="M42460 45260
L42460 44760
L42740 45260
L42740 44760
" />
<path d="M42980 45260
L42980 44760
L43100 44760
L43170 44780
L43220 44830
L43240 44880
L43260 44970
L43260 45040
L43240 45140
L43220 45180
L43170 45230
L43100 45260
L42980 45260
" />
</g>
<g style="fill:#008484; fill-opacity:0.0; 
stroke:#008484; stroke-width:0; stroke-opacity:1; 
stroke-linecap:round; stroke-linejoin:round;">
</g>
<g style="fill:#840000; fill-opacity:0.0; 
stroke:#840000; stroke-width:0; stroke-opacity:1; 
stroke-linecap:round; stroke-linejoin:round;">
</g>
<g style="fill:#840000; fill-opacity:0.0; 
stroke:#840000; stroke-width:100; stroke-opacity:1; 
stroke-linecap:round; stroke-linejoin:round;">
<rect x="16500" y="20600" width="2000" height="800" rx="0" />
</g>
<g style="fill:#840000; fill-opacity:0.0; 
stroke:#840000; stroke-width:60; stroke-opacity:1; 
stroke-linecap:round; stroke-linejoin:round;">
<path d="M16500 21000
L16000 21000
" />
<path d="M18500 21000
L19000 21000
" />
</g>
<g style="fill:#008484; fill-opacity:0.0; 
stroke:#008484; stroke-width:60; stroke-opacity:1; 
stroke-linecap:round; stroke-linejoin:round;">
<path d="M17410 20460
L17250 20220
" />
<path d="M17130 20460
L17130 19960
L17320 19960
L17370 19980
L17390 20000
L17410 20050
L17410 20120
L17390 20170
L17370 20190
L17320 20220
L17130 20220
" />
<path d="M17890 20460
L17610 20460
" />
<path d="M17750 20460
L17750 19960
L17700 20030
L17650 20080
L17610 20100
" />
<path d="M16500 21230
L16450 21260
L16360 21260
L16310 21230
L16290 21180
L16290 20990
L16310 20950
L16360 20920
L16450 20920
L16500 20950
L16520 20990
L16520 21040
L16290 21090
" />
<path d="M16720 21230
L16760 21260
L16860 21260
L16910 21230
L16930 21180
L16930 21160
L16910 21110
L16860 21090
L16790 21090
L16740 21070
L16720 21020
L16720 20990
L16740 20950
L16790 20920
L16860 20920
L16910 20950
" />
<path d="M17140 21260
L17140 20920
" />
<path d="M17140 20760
L17120 20780
L17140 20800
L17160 20780
L17140 20760
L17140 20800
" />
<path d="M17380 21260
L17380 20920
" />
<path d="M17380 20970
L17400 20950
L17450 20920
L17520 20920
L17570 20950
L17590 20990
L17590 21260
" />
<path d="M17590 20990
L17620 20950
L17660 20920
L17740 20920
L17780 20950
L17810 20990
L17810 21260
" />
<path d="M17930 21300
L18310 21300
" />
<path d="M18710 21260
L18550 21020
" />
<path d="M18430 21260
L18430 20760
L18620 20760
L18670 20780
L18690 20800
L18710 20850
L18710 20920
L18690 20970
L18670 20990
L18620 21020
L18430 21020
" />
</g>
<g style="fill:#008484; fill-opacity:0.0; 
stroke:#008484; stroke-width:0; stroke-opacity:1; 
stroke-linecap:round; stroke-linejoin:round;">
</g>
<g style="fill:#840000; fill-opacity:0.0; 
stroke:#840000; stroke-width:0; stroke-opacity:1; 
stroke-linecap:round; stroke-linejoin:round;">
</g>
<g style="fill:#840000; fill-opacity:0.0; 
stroke:#840000; stroke-width:60; stroke-opacity:1; 
stroke-linecap:round; stroke-linejoin:round;">
<path d="M14003.5 24996.4 A5010 5010 0.0 0 0 13505.3 24996 " />
<path d="M14006.1 26003.4 A4510 4510 0.0 0 0 14501.8 26003 " />
<path d="M14500 25004.3 A5510 5510 0.0 0 0 15009.6 25003.9 " />
<path d="M13501.8 24994.9 A4030 4030 0.0 0 0 13501.8 26005.1 " />
<path d="M13998.2 24995 A4530 4530 0.0 0 0 13998.2 26005 " />
<path d="M14502.7 24999.7 A5520 5520 0.0 0 0 14502.7 26000.3 " />
<circle cx="14000" cy="25500" r="1500" /> 
<path d="M14000 24000
L14000 21000
" />
</g>
<g style="fill:#008484; fill-opacity:0.0; 
stroke:#008484; stroke-width:60; stroke-opacity:1; 
stroke-linecap:round; stroke-linejoin:round;">
<path d="M14040 24900
L14040 24520
" />
<path d="M14230 24710
L13850 24710
" />
</g>
<g style="fill:#840000; fill-opacity:0.0; 
stroke:#840000; stroke-width:60; stroke-opacity:1; 
stroke-linecap:round; stroke-linejoin:round;">
<path d="M13880 22360
L13880 22640
" />
<path d="M13880 22500
L13380 22500
L13450 22550
L13500 22600
L13520 22640
" />
<path d="M14000 27000
L14000 30000
" />
</g>
<g style="fill:#008484; fill-opacity:0.0; 
stroke:#008484; stroke-width:60; stroke-opacity:1; 
stroke-linecap:round; stroke-linejoin:round;">
<path d="M14040 26480
L14040 26100
" />
</g>
<g style="fill:#840000; fill-opacity:0.0; 
stroke:#840000; stroke-width:60; stroke-opacity:1; 
stroke-linecap:round; stroke-linejoin:round;">
<path d="M13420 28640
L13400 28620
L13380 28570
L13380 28450
L13400 28410
L13420 28380
L13470 28360
L13520 28360
L13590 28380
L13880 28670
L13880 28360
" />
</g>
<g style="fill:#008484; fill-opacity:0.0; 
stroke:#008484; stroke-width:60; stroke-opacity:1; 
stroke-linecap:round; stroke-linejoin:round;">
</g>
<g style="fill:#008484; fill-opacity:0.0; 
stroke:#008484; stroke-width:120; stroke-opacity:1; 
stroke-linecap:round; stroke-linejoin:round;">
<path d="M12090 24080
L12230 24480
L12370 24080
" />
<path d="M12920 24480
L12570 24480
" />
<path d="M12750 24480
L12750 23880
L12690 23970
L12630 24020
L12570 24050
" />
</g>
<g style="fill:#008484; fill-opacity:0.0; 
stroke:#008484; stroke-width:60; stroke-opacity:1; 
stroke-linecap:round; stroke-linejoin:round;">
<path d="M10950 25910
L10950 26510
" />
<path d="M10950 25940
L11010 25910
L11120 25910
L11180 25940
L11210 25970
L11240 26030
L11240 26200
L11210 26250
L11180 26280
L11120 26310
L11010 26310
L10950 26280
" />
<path d="M11750 25910
L11750 26310
" />
<path d="M11490 25910
L11490 26230
L11520 26280
L11580 26310
L11660 26310
L11720 26280
L11750 26250
" />
<path d="M12120 26310
L12060 26280
L12030 26230
L12030 25710
" />
<path d="M12310 26280
L12370 26310
L12490 26310
L12540 26280
L12570 26230
L12570 26200
L12540 26140
L12490 26110
L12400 26110
L12340 26080
L12310 26030
L12310 26000
L12340 25940
L12400 25910
L12490 25910
L12540 25940
" />
<path d="M13060 26280
L13000 26310
L12890 26310
L12830 26280
L12800 26230
L12800 26000
L12830 25940
L12890 25910
L13000 25910
L13060 25940
L13090 26000
L13090 26050
L12800 26110
" />
</g>
<g style="fill:#840084; fill-opacity:0.0; 
stroke:#840084; stroke-width:60; stroke-opacity:1; 
stroke-linecap:round; stroke-linejoin:round;">
<path d="M10910 25810
L10710 25530
" />
<path d="M10560 25810
L10560 25210
L10790 25210
L10850 25240
L10880 25270
L10910 25330
L10910 25410
L10880 25470
L10850 25500
L10790 25530
L10560 25530
" />
<path d="M11480 25810
L11130 25810
" />
<path d="M11310 25810
L11310 25210
L11250 25300
L11190 25350
L11130 25380
" />
</g>
<g style="fill:#840084; fill-opacity:0.0; 
stroke:#840084; stroke-width:0; stroke-opacity:1; 
stroke-linecap:round; stroke-linejoin:round;">
</g>
<g style="fill:#840000; fill-opacity:0.0; 
stroke:#840000; stroke-width:0; stroke-opacity:1; 
stroke-linecap:round; stroke-linejoin:round;">
</g>
<g style="fill:#840000; fill-opacity:0.0; 
stroke:#840000; stroke-width:100; stroke-opacity:1; 
stroke-linecap:round; stroke-linejoin:round;">
<rect x="28100" y="20000" width="800" height="2000" rx="0" />
</g>
<g style="fill:#840000; fill-opacity:0.0; 
stroke:#840000; stroke-width:60; stroke-opacity:1; 
stroke-linecap:round; stroke-linejoin:round;">
<path d="M28500 20000
L28500 19500
" />
<path d="M28500 22000
L28500 22500
" />
</g>
<g style="fill:#008484; fill-opacity:0.0; 
stroke:#008484; stroke-width:60; stroke-opacity:1; 
stroke-linecap:round; stroke-linejoin:round;">
<path d="M29490 21090
L29250 21250
" />
<path d="M29490 21370
L28990 21370
L28990 21180
L29010 21130
L29030 21110
L29080 21090
L29150 21090
L29200 21110
L29220 21130
L29250 21180
L29250 21370
" />
<path d="M29030 20890
L29010 20870
L28990 20820
L28990 20700
L29010 20660
L29030 20630
L29080 20610
L29130 20610
L29200 20630
L29490 20920
L29490 20610
" />
<path d="M28410 21110
L28410 21390
" />
<path d="M28410 21250
L27910 21250
L27980 21300
L28030 21350
L28050 21390
" />
<path d="M28410 20890
L27910 20890
" />
<path d="M28410 20610
L28120 20820
" />
<path d="M27910 20610
L28190 20890
" />
</g>
<g style="fill:#008484; fill-opacity:0.0; 
stroke:#008484; stroke-width:0; stroke-opacity:1; 
stroke-linecap:round; stroke-linejoin:round;">
</g>
<g style="fill:#840000; fill-opacity:0.0; 
stroke:#840000; stroke-width:0; stroke-opacity:1; 
stroke-linecap:round; stroke-linejoin:round;">
</g>
<g style="fill:#840000; fill-opacity:0.0; 
stroke:#840000; stroke-width:60; stroke-opacity:1; 
stroke-linecap:round; stroke-linejoin:round;">
<polyline fill="none;"
points="45000,43500
45000,44000
45500,44000
45000,44500
44500,44000
45000,44000
" /> 
</g>
<g style="fill:#008484; fill-opacity:0.0; 
stroke:#008484; stroke-width:60; stroke-opacity:1; 
stroke-linecap:round; stroke-linejoin:round;">
<path d="M43450 45230
L43400 45260
L43310 45260
L43260 45230
L43240 45180
L43240 44990
L43260 44950
L43310 44920
L43400 44920
L43450 44950
L43470 44990
L43470 45040
L43240 45090
" />
<path d="M43670 45230
L43740 45260
L43860 45260
L43900 45230
L43930 45210
L43950 45160
L43950 45110
L43930 45070
L43900 45040
L43860 45020
L43760 44990
L43710 44970
L43690 44950
L43670 44900
L43670 44850
L43690 44800
L43710 44780
L43760 44760
L43880 44760
L43950 44780
" />
<path d="M44170 45260
L44170 44920
" />
<path d="M44170 44760
L44150 44780
L44170 44800
L44190 44780
L44170 44760
L44170 44800
" />
<path d="M44410 45260
L44410 44920
" />
<path d="M44410 44970
L44430 44950
L44480 44920
L44550 44920
L44600 44950
L44620 44990
L44620 45260
" />
<path d="M44620 44990
L44650 44950
L44690 44920
L44770 44920
L44810 44950
L44840 44990
L44840 45260
" />
<path d="M44960 45300
L45340 45300
" />
<path d="M45720 44780
L45670 44760
L45600 44760
L45530 44780
L45480 44830
L45460 44880
L45440 44970
L45440 45040
L45460 45140
L45480 45180
L45530 45230
L45600 45260
L45650 45260
L45720 45230
L45740 45210
L45740 45040
L45650 45040
" />
<path d="M45960 45260
L45960 44760
L46240 45260
L46240 44760
" />
<path d="M46480 45260
L46480 44760
L46600 44760
L46670 44780
L46720 44830
L46740 44880
L46760 44970
L46760 45040
L46740 45140
L46720 45180
L46670 45230
L46600 45260
L46480 45260
" />
</g>
<g style="fill:#840000; fill-opacity:0.0; 
stroke:#840000; stroke-width:60; stroke-opacity:1; 
stroke-linecap:round; stroke-linejoin:round;">
<path d="M37420 22670
L37620 23270
L37820 22670
" />
<path d="M38100 23270
L38040 23240
L38010 23210
L37980 23160
L37980 22990
L38010 22930
L38040 22900
L38100 22870
L38180 22870
L38240 22900
L38270 22930
L38300 22990
L38300 23160
L38270 23210
L38240 23240
L38180 23270
L38100 23270
" />
<path d="M38810 22870
L38810 23270
" />
<path d="M38550 22870
L38550 23190
L38580 23240
L38640 23270
L38720 23270
L38780 23240
L38810 23210
" />
<path d="M39010 22870
L39240 22870
" />
<path d="M39090 22670
L39090 23190
L39120 23240
L39180 23270
L39240 23270
" />
<path d="M39430 22870
L39430 23470
" />
<path d="M39430 22900
L39490 22870
L39600 22870
L39660 22900
L39690 22930
L39720 22990
L39720 23160
L39690 23210
L39660 23240
L39600 23270
L39490 23270
L39430 23240
" />
<path d="M40230 22870
L40230 23270
" />
<path d="M39970 22870
L39970 23190
L40000 23240
L40060 23270
L40140 23270
L40200 23240
L40230 23210
" />
<path d="M40430 22870
L40660 22870
" />
<path d="M40510 22670
L40510 23190
L40540 23240
L40600 23270
L40660 23270
" />
</g>
<g style="fill:#840000; fill-opacity:0.0; 
stroke:#840000; stroke-width:100; stroke-opacity:1; 
stroke-linecap:round; stroke-linejoin:round;">
<polyline fill="none;"
points="37000,23000
37300,23540
40940,23540
40940,23000
40940,22460
37300,22460
37000,23000
" /> 
</g>
<g style="fill:#840000; fill-opacity:0.0; 
stroke:#840000; stroke-width:60; stroke-opacity:1; 
stroke-linecap:round; stroke-linejoin:round;">
<path d="M10320 20670
L10440 21270
L10720 20670
" />
<path d="M11090 21270
L11130 20960
L11110 20900
L11050 20870
L10940 20870
L10880 20900
" />
<path d="M11100 21240
L11030 21270
L10890 21270
L10840 21240
L10810 21190
L10820 21130
L10860 21070
L10920 21040
L11060 21040
L11130 21010
" />
<path d="M11370 21270
L11420 20870
" />
<path d="M11450 20670
L11420 20700
L11440 20730
L11480 20700
L11450 20670
L11440 20730
" />
<path d="M11710 20870
L11660 21270
" />
<path d="M11710 20930
L11740 20900
L11800 20870
L11880 20870
L11940 20900
L11960 20960
L11920 21270
" />
</g>
<g style="fill:#840000; fill-opacity:0.0; 
stroke:#840000; stroke-width:100; stroke-opacity:1; 
stroke-linecap:round; stroke-linejoin:round;">
<polyline fill="none;"
points="12500,21000
12200,20460
9950,20460
9950,21000
9950,21540
12200,21540
12500,21000
" /> 
</g>
<g style="fill:#840000; fill-opacity:0.0; 
stroke:#840000; stroke-width:60; stroke-opacity:1; 
stroke-linecap:round; stroke-linejoin:round;">
<path d="M25820 30670
L26020 31270
L26220 30670
" />
<path d="M26410 31270
L26410 30670
" />
<path d="M26410 30900
L26470 30870
L26580 30870
L26640 30900
L26670 30930
L26700 30990
L26700 31160
L26670 31210
L26640 31240
L26580 31270
L26470 31270
L26410 31240
" />
<path d="M26950 31270
L26950 30870
" />
<path d="M26950 30670
L26920 30700
L26950 30730
L26980 30700
L26950 30670
L26950 30730
" />
<path d="M27240 30870
L27240 31270
" />
<path d="M27240 30930
L27270 30900
L27330 30870
L27410 30870
L27470 30900
L27500 30960
L27500 31270
" />
</g>
<g style="fill:#840000; fill-opacity:0.0; 
stroke:#840000; stroke-width:100; stroke-opacity:1; 
stroke-linecap:round; stroke-linejoin:round;">
<polyline fill="none;"
points="28000,31000
27700,30460
25530,30460
25530,31000
25530,31540
27700,31540
28000,31000
" /> 
</g>
<g style="fill:#840000; fill-opacity:0.0; 
stroke:#840000; stroke-width:0; stroke-opacity:1; 
stroke-linecap:round; stroke-linejoin:round;">
</g>
<g style="fill:#840000; fill-opacity:0.0; 
stroke:#840000; stroke-width:60; stroke-opacity:1; 
stroke-linecap:round; stroke-linejoin:round;">
<circle cx="14000" cy="16500" r="1000" /> 
<path d="M14000 17500
L14000 19500
" />
</g>
<g style="fill:#008484; fill-opacity:0.0; 
stroke:#008484; stroke-width:60; stroke-opacity:1; 
stroke-linecap:round; stroke-linejoin:round;">
<path d="M13540 16210
L13540 16700
L13570 16750
L13600 16780
L13660 16810
L13770 16810
L13830 16780
L13860 16750
L13890 16700
L13890 16210
" />
<path d="M14490 16810
L14140 16810
" />
<path d="M14320 16810
L14320 16210
L14260 16300
L14200 16350
L14140 16380
" />
<path d="M14530 17910
L14530 18510
" />
<path d="M14530 17940
L14590 17910
L14700 17910
L14760 17940
L14790 17970
L14820 18030
L14820 18200
L14790 18250
L14760 18280
L14700 18310
L14590 18310
L14530 18280
" />
<path d="M15160 18310
L15100 18280
L15070 18230
L15070 17710
" />
<path d="M15470 18310
L15410 18280
L15380 18250
L15350 18200
L15350 18030
L15380 17970
L15410 17940
L15470 17910
L15550 17910
L15610 17940
L15640 17970
L15670 18030
L15670 18200
L15640 18250
L15610 18280
L15550 18310
L15470 18310
" />
<path d="M15840 17910
L16070 17910
" />
<path d="M15920 17710
L15920 18230
L15950 18280
L16010 18310
L16070 18310
" />
<path d="M16120 18370
L16580 18370
" />
<path d="M16670 17910
L16810 18310
L16950 17910
" />
<path d="M17500 18310
L17150 18310
" />
<path d="M17330 18310
L17330 17710
L17270 17800
L17210 17850
L17150 17880
" />
</g>
<g style="fill:#008484; fill-opacity:0.0; 
stroke:#008484; stroke-width:0; stroke-opacity:1; 
stroke-linecap:round; stroke-linejoin:round;">
</g>
<g style="fill:#840000; fill-opacity:0.0; 
stroke:#840000; stroke-width:0; stroke-opacity:1; 
stroke-linecap:round; stroke-linejoin:round;">
</g>
<g style="fill:#840000; fill-opacity:0.0; 
stroke:#840000; stroke-width:60; stroke-opacity:1; 
stroke-linecap:round; stroke-linejoin:round;">
<circle cx="29500" cy="26500" r="1000" /> 
<path d="M29500 27500
L29500 29500
" />
</g>
<g style="fill:#008484; fill-opacity:0.0; 
stroke:#008484; stroke-width:60; stroke-opacity:1; 
stroke-linecap:round; stroke-linejoin:round;">
<path d="M29040 26210
L29040 26700
L29070 26750
L29100 26780
L29160 26810
L29270 26810
L29330 26780
L29360 26750
L29390 26700
L29390 26210
" />
<path d="M29640 26270
L29670 26240
L29730 26210
L29870 26210
L29930 26240
L29960 26270
L29990 26330
L29990 26380
L29960 26470
L29620 26810
L29990 26810
" />
<path d="M30030 27910
L30030 28510
" />
<path d="M30030 27940
L30090 27910
L30200 27910
L30260 27940
L30290 27970
L30320 28030
L30320 28200
L30290 28250
L30260 28280
L30200 28310
L30090 28310
L30030 28280
" />
<path d="M30660 28310
L30600 28280
L30570 28230
L30570 27710
" />
<path d="M30970 28310
L30910 28280
L30880 28250
L30850 28200
L30850 28030
L30880 27970
L30910 27940
L30970 27910
L31050 27910
L31110 27940
L31140 27970
L31170 28030
L31170 28200
L31140 28250
L31110 28280
L31050 28310
L30970 28310
" />
<path d="M31340 27910
L31570 27910
" />
<path d="M31420 27710
L31420 28230
L31450 28280
L31510 28310
L31570 28310
" />
<path d="M31620 28370
L32080 28370
" />
<path d="M32170 27910
L32310 28310
L32450 27910
" />
<path d="M33000 28310
L32650 28310
" />
<path d="M32830 28310
L32830 27710
L32770 27800
L32710 27850
L32650 27880
" />
</g>
<g style="fill:#008484; fill-opacity:0.0; 
stroke:#008484; stroke-width:0; stroke-opacity:1; 
stroke-linecap:round; stroke-linejoin:round;">
</g>
<g style="fill:#840000; fill-opacity:0.0; 
stroke:#840000; stroke-width:0; stroke-opacity:1; 
stroke-linecap:round; stroke-linejoin:round;">
</g>
<g style="fill:#840000; fill-opacity:0.0; 
stroke:#840000; stroke-width:60; stroke-opacity:1; 
stroke-linecap:round; stroke-linejoin:round;">
<circle cx="33000" cy="18500" r="1000" /> 
<path d="M33000 19500
L33000 21500
" />
</g>
<g style="fill:#008484; fill-opacity:0.0; 
stroke:#008484; stroke-width:60; stroke-opacity:1; 
stroke-linecap:round; stroke-linejoin:round;">
<path d="M32540 18210
L32540 18700
L32570 18750
L32600 18780
L32660 18810
L32770 18810
L32830 18780
L32860 18750
L32890 18700
L32890 18210
" />
<path d="M33120 18210
L33490 18210
L33290 18440
L33370 18440
L33430 18470
L33460 18500
L33490 18550
L33490 18700
L33460 18750
L33430 18780
L33370 18810
L33200 18810
L33140 18780
L33120 18750
" />
<path d="M33530 19910
L33530 20510
" />
<path d="M33530 19940
L33590 19910
L33700 19910
L33760 19940
L33790 19970
L33820 20030
L33820 20200
L33790 20250
L33760 20280
L33700 20310
L33590 20310
L33530 20280
" />
<path d="M34160 20310
L34100 20280
L34070 20230
L34070 19710
" />
<path d="M34470 20310
L34410 20280
L34380 20250
L34350 20200
L34350 20030
L34380 19970
L34410 19940
L34470 19910
L34550 19910
L34610 19940
L34640 19970
L34670 20030
L34670 20200
L34640 20250
L34610 20280
L34550 20310
L34470 20310
" />
<path d="M34840 19910
L35070 19910
" />
<path d="M34920 19710
L34920 20230
L34950 20280
L35010 20310
L35070 20310
" />
<path d="M35120 20370
L35580 20370
" />
<path d="M35670 19910
L35810 20310
L35950 19910
" />
<path d="M36500 20310
L36150 20310
" />
<path d="M36330 20310
L36330 19710
L36270 19800
L36210 19850
L36150 19880
" />
</g>
<g style="fill:#008484; fill-opacity:0.0; 
stroke:#008484; stroke-width:0; stroke-opacity:1; 
stroke-linecap:round; stroke-linejoin:round;">
</g>
<g style="fill:#840000; fill-opacity:0.0; 
stroke:#840000; stroke-width:0; stroke-opacity:1; 
stroke-linecap:round; stroke-linejoin:round;">
</g>
<g style="fill:#840000; fill-opacity:0.0; 
stroke:#840000; stroke-width:100; stroke-opacity:1; 
stroke-linecap:round; stroke-linejoin:round;">
<circle cx="39500" cy="31000" r="1110" /> 
</g>
<g style="fill:#840000; fill-opacity:0.0; 
stroke:#840000; stroke-width:60; stroke-opacity:1; 
stroke-linecap:round; stroke-linejoin:round;">
<polyline fill="none;"
points="39250,30750
40000,30000
" /> 
<polyline fill="none;"
points="39250,31250
40000,32000
40000,32000
" /> 
</g>
<g style="fill:#840000; fill-opacity:0.0; 
stroke:#840000; stroke-width:200; stroke-opacity:1; 
stroke-linecap:round; stroke-linejoin:round;">
<polyline fill="none;"
points="39250,30250
39250,31750
39250,31750
" /> 
</g>
<g style="fill:#840000; fill-opacity:1.0; 
stroke:#840000; stroke-width:60; stroke-opacity:1; 
stroke-linecap:round; stroke-linejoin:round;">
<polyline style="fill-rule:evenodd;"
points="39500,31700
39700,31500
39900,31900
39500,31700
39500,31700
" /> 
</g>
<g style="fill:#840000; fill-opacity:0.0; 
stroke:#840000; stroke-width:60; stroke-opacity:1; 
stroke-linecap:round; stroke-linejoin:round;">
<path d="M40000 30000
L40000 29000
" />
<path d="M40580 29360
L40580 29640
" />
<path d="M40580 29500
L40080 29500
L40150 29550
L40200 29600
L40220 29640
" />
<path d="M39250 31000
L37000 31000
" />
<path d="M37980 31120
L38000 31100
L38050 31080
L38170 31080
L38210 31100
L38240 31120
L38260 31170
L38260 31220
L38240 31290
L37950 31580
L38260 31580
" />
<path d="M40000 32000
L40000 33000
" />
<path d="M40080 32670
L40080 32360
L40270 32530
L40270 32450
L40290 32410
L40310 32380
L40360 32360
L40480 32360
L40530 32380
L40550 32410
L40580 32450
L40580 32600
L40550 32640
L40530 32670
" />
</g>
<g style="fill:#008484; fill-opacity:0.0; 
stroke:#008484; stroke-width:60; stroke-opacity:1; 
stroke-linecap:round; stroke-linejoin:round;">
<path d="M37450 30800
L37400 30780
L37360 30730
L37290 30660
L37240 30640
L37190 30640
" />
<path d="M37210 30760
L37170 30730
L37120 30680
L37100 30590
L37100 30420
L37120 30330
L37170 30280
L37210 30260
L37310 30260
L37360 30280
L37400 30330
L37430 30420
L37430 30590
L37400 30680
L37360 30730
L37310 30760
L37210 30760
" />
<path d="M37620 30300
L37640 30280
L37690 30260
L37810 30260
L37850 30280
L37880 30300
L37900 30350
L37900 30400
L37880 30470
L37590 30760
L37900 30760
" />
<path d="M35070 29730
L35020 29760
L34930 29760
L34880 29730
L34860 29680
L34860 29490
L34880 29450
L34930 29420
L35020 29420
L35070 29450
L35090 29490
L35090 29540
L34860 29590
" />
<path d="M35290 29730
L35360 29760
L35480 29760
L35520 29730
L35550 29710
L35570 29660
L35570 29610
L35550 29570
L35520 29540
L35480 29520
L35380 29490
L35330 29470
L35310 29450
L35290 29400
L35290 29350
L35310 29300
L35330 29280
L35380 29260
L35500 29260
L35570 29280
" />
<path d="M35790 29760
L35790 29420
" />
<path d="M35790 29260
L35770 29280
L35790 29300
L35810 29280
L35790 29260
L35790 29300
" />
<path d="M36030 29760
L36030 29420
" />
<path d="M36030 29470
L36050 29450
L36100 29420
L36170 29420
L36220 29450
L36240 29490
L36240 29760
" />
<path d="M36240 29490
L36270 29450
L36310 29420
L36390 29420
L36430 29450
L36460 29490
L36460 29760
" />
<path d="M36580 29800
L36960 29800
" />
<path d="M37080 29760
L37080 29260
L37360 29760
L37360 29260
" />
<path d="M37600 29760
L37600 29260
L37790 29260
L37840 29280
L37860 29300
L37880 29350
L37880 29420
L37860 29470
L37840 29490
L37790 29520
L37600 29520
" />
<path d="M38100 29760
L38100 29260
L38380 29760
L38380 29260
" />
</g>
<g style="fill:#008484; fill-opacity:0.0; 
stroke:#008484; stroke-width:0; stroke-opacity:1; 
stroke-linecap:round; stroke-linejoin:round;">
</g>
<g style="fill:#840000; fill-opacity:0.0; 
stroke:#840000; stroke-width:0; stroke-opacity:1; 
stroke-linecap:round; stroke-linejoin:round;">
</g>
<g style="fill:#840000; fill-opacity:0.0; 
stroke:#840000; stroke-width:100; stroke-opacity:1; 
stroke-linecap:round; stroke-linejoin:round;">
<circle cx="23000" cy="31000" r="1110" /> 
</g>
<g style="fill:#840000; fill-opacity:0.0; 
stroke:#840000; stroke-width:60; stroke-opacity:1; 
stroke-linecap:round; stroke-linejoin:round;">
<polyline fill="none;"
points="22750,30750
23500,30000
" /> 
<polyline fill="none;"
points="22750,31250
23500,32000
23500,32000
" /> 
</g>
<g style="fill:#840000; fill-opacity:0.0; 
stroke:#840000; stroke-width:200; stroke-opacity:1; 
stroke-linecap:round; stroke-linejoin:round;">
<polyline fill="none;"
points="22750,30250
22750,31750
22750,31750
" /> 
</g>
<g style="fill:#840000; fill-opacity:1.0; 
stroke:#840000; stroke-width:60; stroke-opacity:1; 
stroke-linecap:round; stroke-linejoin:round;">
<polyline style="fill-rule:evenodd;"
points="23000,31700
23200,31500
23400,31900
23000,31700
23000,31700
" /> 
</g>
<g style="fill:#840000; fill-opacity:0.0; 
stroke:#840000; stroke-width:60; stroke-opacity:1; 
stroke-linecap:round; stroke-linejoin:round;">
<path d="M23500 30000
L23500 29000
" />
<path d="M24080 29360
L24080 29640
" />
<path d="M24080 29500
L23580 29500
L23650 29550
L23700 29600
L23720 29640
" />
<path d="M22750 31000
L20500 31000
" />
<path d="M21480 31120
L21500 31100
L21550 31080
L21670 31080
L21710 31100
L21740 31120
L21760 31170
L21760 31220
L21740 31290
L21450 31580
L21760 31580
" />
<path d="M23500 32000
L23500 33000
" />
<path d="M23580 32670
L23580 32360
L23770 32530
L23770 32450
L23790 32410
L23810 32380
L23860 32360
L23980 32360
L24030 32380
L24050 32410
L24080 32450
L24080 32600
L24050 32640
L24030 32670
" />
</g>
<g style="fill:#008484; fill-opacity:0.0; 
stroke:#008484; stroke-width:60; stroke-opacity:1; 
stroke-linecap:round; stroke-linejoin:round;">
<path d="M20950 30800
L20900 30780
L20860 30730
L20790 30660
L20740 30640
L20690 30640
" />
<path d="M20710 30760
L20670 30730
L20620 30680
L20600 30590
L20600 30420
L20620 30330
L20670 30280
L20710 30260
L20810 30260
L20860 30280
L20900 30330
L20930 30420
L20930 30590
L20900 30680
L20860 30730
L20810 30760
L20710 30760
" />
<path d="M21400 30760
L21120 30760
" />
<path d="M21260 30760
L21260 30260
L21210 30330
L21160 30380
L21120 30400
" />
<path d="M18570 29730
L18520 29760
L18430 29760
L18380 29730
L18360 29680
L18360 29490
L18380 29450
L18430 29420
L18520 29420
L18570 29450
L18590 29490
L18590 29540
L18360 29590
" />
<path d="M18790 29730
L18860 29760
L18980 29760
L19020 29730
L19050 29710
L19070 29660
L19070 29610
L19050 29570
L19020 29540
L18980 29520
L18880 29490
L18830 29470
L18810 29450
L18790 29400
L18790 29350
L18810 29300
L18830 29280
L18880 29260
L19000 29260
L19070 29280
" />
<path d="M19290 29760
L19290 29420
" />
<path d="M19290 29260
L19270 29280
L19290 29300
L19310 29280
L19290 29260
L19290 29300
" />
<path d="M19530 29760
L19530 29420
" />
<path d="M19530 29470
L19550 29450
L19600 29420
L19670 29420
L19720 29450
L19740 29490
L19740 29760
" />
<path d="M19740 29490
L19770 29450
L19810 29420
L19890 29420
L19930 29450
L19960 29490
L19960 29760
" />
<path d="M20080 29800
L20460 29800
" />
<path d="M20580 29760
L20580 29260
L20860 29760
L20860 29260
" />
<path d="M21100 29760
L21100 29260
L21290 29260
L21340 29280
L21360 29300
L21380 29350
L21380 29420
L21360 29470
L21340 29490
L21290 29520
L21100 29520
" />
<path d="M21600 29760
L21600 29260
L21880 29760
L21880 29260
" />
</g>
<g style="fill:#008400; fill-opacity:0.0; 
stroke:#008400; stroke-width:60; stroke-opacity:1; 
stroke-linecap:round; stroke-linejoin:round;">
<path d="M23500 24500
L40000 24500
" />
<path d="M12500 21000
L16000 21000
" />
<path d="M19000 21000
L20500 21000
" />
<path d="M28000 31000
L31500 31000
" />
</g>
<g style="fill:#008400; fill-opacity:0.0; 
stroke:#008400; stroke-width:0; stroke-opacity:1; 
stroke-linecap:round; stroke-linejoin:round;">
</g>
<g style="fill:#008400; fill-opacity:1.0; 
stroke:#008400; stroke-width:100; stroke-opacity:1; 
stroke-linecap:round; stroke-linejoin:round;">
<circle cx="29500" cy="40000" r="200" /> 
</g>
<g style="fill:#008400; fill-opacity:1.0; 
stroke:#008400; stroke-width:60; stroke-opacity:1; 
stroke-linecap:round; stroke-linejoin:round;">
</g>
<g style="fill:#008400; fill-opacity:0.0; 
stroke:#008400; stroke-width:60; stroke-opacity:1; 
stroke-linecap:round; stroke-linejoin:round;">
<path d="M28500 22500
L28500 24500
" />
<path d="M41500 40000
L41500 43500
" />
<path d="M45000 34000
L45000 43500
" />
<path d="M37000 23000
L28500 23000
" />
</g>
<g style="fill:#008400; fill-opacity:0.0; 
stroke:#008400; stroke-width:0; stroke-opacity:1; 
stroke-linecap:round; stroke-linejoin:round;">
</g>
<g style="fill:#008400; fill-opacity:1.0; 
stroke:#008400; stroke-width:100; stroke-opacity:1; 
stroke-linecap:round; stroke-linejoin:round;">
<circle cx="28500" cy="23000" r="200" /> 
</g>
<g style="fill:#008400; fill-opacity:1.0; 
stroke:#008400; stroke-width:0; stroke-opacity:1; 
stroke-linecap:round; stroke-linejoin:round;">
</g>
<g style="fill:#008400; fill-opacity:1.0; 
stroke:#008400; stroke-width:100; stroke-opacity:1; 
stroke-linecap:round; stroke-linejoin:round;">
<circle cx="14000" cy="21000" r="200" /> 
</g>
<g style="fill:#008400; fill-opacity:1.0; 
stroke:#008400; stroke-width:0; stroke-opacity:1; 
stroke-linecap:round; stroke-linejoin:round;">
</g>
<g style="fill:#008400; fill-opacity:1.0; 
stroke:#008400; stroke-width:100; stroke-opacity:1; 
stroke-linecap:round; stroke-linejoin:round;">
<circle cx="29500" cy="31000" r="200" /> 
</g>
<g style="fill:#008400; fill-opacity:1.0; 
stroke:#008400; stroke-width:60; stroke-opacity:1; 
stroke-linecap:round; stroke-linejoin:round;">
</g>
<g style="fill:#008400; fill-opacity:0.0; 
stroke:#008400; stroke-width:60; stroke-opacity:1; 
stroke-linecap:round; stroke-linejoin:round;">
<path d="M33000 21500
L33000 23000
" />
</g>
<g style="fill:#008400; fill-opacity:0.0; 
stroke:#008400; stroke-width:0; stroke-opacity:1; 
stroke-linecap:round; stroke-linejoin:round;">
</g>
<g style="fill:#008400; fill-opacity:1.0; 
stroke:#008400; stroke-width:100; stroke-opacity:1; 
stroke-linecap:round; stroke-linejoin:round;">
<circle cx="33000" cy="23000" r="200" /> 
</g>
<g style="fill:#008400; fill-opacity:1.0; 
stroke:#008400; stroke-width:60; stroke-opacity:1; 
stroke-linecap:round; stroke-linejoin:round;">
</g>
<g style="fill:#008400; fill-opacity:0.0; 
stroke:#008400; stroke-width:60; stroke-opacity:1; 
stroke-linecap:round; stroke-linejoin:round;">
<path d="M29500 29500
L29500 31000
" />
<path d="M14000 19500
L14000 21000
" />
<path d="M28500 19500
L28500 15500
" />
</g>
<g style="fill:#008400; fill-opacity:0.0; 
stroke:#008400; stroke-width:0; stroke-opacity:1; 
stroke-linecap:round; stroke-linejoin:round;">
</g>
<g style="fill:#008400; fill-opacity:1.0; 
stroke:#008400; stroke-width:100; stroke-opacity:1; 
stroke-linecap:round; stroke-linejoin:round;">
<circle cx="28500" cy="24500" r="200" /> 
</g>
<g style="fill:#008400; fill-opacity:1.0; 
stroke:#008400; stroke-width:60; stroke-opacity:1; 
stroke-linecap:round; stroke-linejoin:round;">
</g>
<g style="fill:#008400; fill-opacity:0.0; 
stroke:#008400; stroke-width:60; stroke-opacity:1; 
stroke-linecap:round; stroke-linejoin:round;">
<path d="M14000 30000
L14000 40000
" />
<path d="M14000 40000
L41500 40000
" />
</g>
<g style="fill:#008400; fill-opacity:0.0; 
stroke:#008400; stroke-width:0; stroke-opacity:1; 
stroke-linecap:round; stroke-linejoin:round;">
</g>
<g style="fill:#008400; fill-opacity:1.0; 
stroke:#008400; stroke-width:100; stroke-opacity:1; 
stroke-linecap:round; stroke-linejoin:round;">
<circle cx="23500" cy="40000" r="200" /> 
</g>
<g style="fill:#008400; fill-opacity:1.0; 
stroke:#008400; stroke-width:60; stroke-opacity:1; 
stroke-linecap:round; stroke-linejoin:round;">
</g>
<g style="fill:#008400; fill-opacity:0.0; 
stroke:#008400; stroke-width:60; stroke-opacity:1; 
stroke-linecap:round; stroke-linejoin:round;">
<path d="M28500 15500
L45000 15500
" />
<path d="M45000 15500
L45000 25000
" />
<path d="M40000 24500
L40000 29000
" />
<path d="M34500 31000
L37000 31000
" />
<path d="M40000 33000
L40000 40000
" />
</g>
<g style="fill:#008400; fill-opacity:0.0; 
stroke:#008400; stroke-width:0; stroke-opacity:1; 
stroke-linecap:round; stroke-linejoin:round;">
</g>
<g style="fill:#008400; fill-opacity:1.0; 
stroke:#008400; stroke-width:100; stroke-opacity:1; 
stroke-linecap:round; stroke-linejoin:round;">
<circle cx="40000" cy="40000" r="200" /> 
</g>
<g style="fill:#008400; fill-opacity:1.0; 
stroke:#008400; stroke-width:60; stroke-opacity:1; 
stroke-linecap:round; stroke-linejoin:round;">
</g>
<g style="fill:#008400; fill-opacity:0.0; 
stroke:#008400; stroke-width:60; stroke-opacity:1; 
stroke-linecap:round; stroke-linejoin:round;">
<path d="M23500 24500
L23500 29000
" />
<path d="M23500 40000
L23500 33000
" />
<path d="M20500 21000
L20500 31000
" />
</g>
<g style="fill:#008400; fill-opacity:0.0; 
stroke:#008400; stroke-width:0; stroke-opacity:1; 
stroke-linecap:round; stroke-linejoin:round;">
</g>
<g style="fill:#840000; fill-opacity:0.0; 
stroke:#840000; stroke-width:0; stroke-opacity:1; 
stroke-linecap:round; stroke-linejoin:round;">
</g>
<g style="fill:#840000; fill-opacity:0.0; 
stroke:#840000; stroke-width:60; stroke-opacity:1; 
stroke-linecap:round; stroke-linejoin:round;">
<circle cx="45000" cy="29500" r="1500" /> 
<path d="M45000 28000
L45000 25000
" />
</g>
<g style="fill:#008484; fill-opacity:0.0; 
stroke:#008484; stroke-width:60; stroke-opacity:1; 
stroke-linecap:round; stroke-linejoin:round;">
<path d="M45040 28900
L45040 28520
" />
<path d="M45230 28710
L44850 28710
" />
</g>
<g style="fill:#840000; fill-opacity:0.0; 
stroke:#840000; stroke-width:60; stroke-opacity:1; 
stroke-linecap:round; stroke-linejoin:round;">
<path d="M44880 26360
L44880 26640
" />
<path d="M44880 26500
L44380 26500
L44450 26550
L44500 26600
L44520 26640
" />
<path d="M45000 31000
L45000 34000
" />
</g>
<g style="fill:#008484; fill-opacity:0.0; 
stroke:#008484; stroke-width:60; stroke-opacity:1; 
stroke-linecap:round; stroke-linejoin:round;">
<path d="M45040 30480
L45040 30100
" />
</g>
<g style="fill:#840000; fill-opacity:0.0; 
stroke:#840000; stroke-width:60; stroke-opacity:1; 
stroke-linecap:round; stroke-linejoin:round;">
<path d="M44420 32640
L44400 32620
L44380 32570
L44380 32450
L44400 32410
L44420 32380
L44470 32360
L44520 32360
L44590 32380
L44880 32670
L44880 32360
" />
</g>
<g style="fill:#008484; fill-opacity:0.0; 
stroke:#008484; stroke-width:60; stroke-opacity:1; 
stroke-linecap:round; stroke-linejoin:round;">
<path d="M42580 28410
L42720 28810
L42860 28410
" />
<path d="M43060 28270
L43090 28240
L43150 28210
L43290 28210
L43350 28240
L43380 28270
L43410 28330
L43410 28380
L43380 28470
L43040 28810
L43410 28810
" />
<path d="M42540 30310
L42540 29710
L42690 29710
L42770 29740
L42830 29800
L42860 29850
L42890 29970
L42890 30050
L42860 30170
L42830 30230
L42770 30280
L42690 30310
L42540 30310
" />
<path d="M43490 30250
L43460 30280
L43370 30310
L43310 30310
L43230 30280
L43170 30230
L43140 30170
L43110 30050
L43110 29970
L43140 29850
L43170 29800
L43230 29740
L43310 29710
L43370 29710
L43460 29740
L43490 29770
" />
</g>
<g style="fill:#840084; fill-opacity:0.0; 
stroke:#840084; stroke-width:60; stroke-opacity:1; 
stroke-linecap:round; stroke-linejoin:round;">
<path d="M41910 29810
L41710 29530
" />
<path d="M41560 29810
L41560 29210
L41790 29210
L41850 29240
L41880 29270
L41910 29330
L41910 29410
L41880 29470
L41850 29500
L41790 29530
L41560 29530
" />
<path d="M42480 29810
L42130 29810
" />
<path d="M42310 29810
L42310 29210
L42250 29300
L42190 29350
L42130 29380
" />
</g> 
</svg>
